<svg id="Capa_1" xmlns="http://www.w3.org/2000/svg" viewBox="0 0 257.8 48.9"><style>.st0{fill:#e62027}.st1{fill:#ffff}</style><path class="st0" d="M7.3 10.8v3.8h.1c1-1.5 2.2-2.6 3.7-3.4 1.4-.8 3.1-1.2 4.9-1.2 1.8 0 3.4.3 4.9 1 1.5.7 2.6 1.9 3.4 3.7.8-1.2 2-2.3 3.4-3.3 1.4-.9 3.1-1.4 5.1-1.4 1.5 0 2.9.2 4.2.5 1.3.4 2.4.9 3.3 1.8.9.8 1.6 1.8 2.1 3.1s.8 2.8.8 4.7V39h-7.8V23c0-.9 0-1.8-.1-2.7-.1-.8-.3-1.6-.6-2.2-.3-.6-.8-1.1-1.4-1.5-.6-.4-1.5-.5-2.6-.5s-2 .2-2.6.6c-.7.4-1.2 1-1.6 1.6-.4.7-.6 1.4-.8 2.3-.1.9-.2 1.7-.2 2.6V39h-7.8V23.2c0-.8 0-1.7-.1-2.5 0-.8-.2-1.6-.5-2.3-.3-.7-.7-1.2-1.4-1.7-.6-.4-1.6-.6-2.8-.6-.4 0-.8.1-1.4.2-.6.2-1.2.5-1.7.9-.6.5-1.1 1.1-1.4 2-.4.9-.6 2-.6 3.4V39H0V10.8h7.3zm39.5-.1h7.8v28.4h-7.8z"/><path class="st0" d="M55.6 42.5c.8 0 1.5-.2 2.1-.5.6-.3.9-1 .9-2V10.8h7.8v29.6c0 1.5-.2 2.7-.5 3.8-.3 1.1-.8 1.9-1.6 2.6-.7.7-1.8 1.2-3 1.6-1.3.3-2.9.5-4.9.5-.9 0-1.7-.1-2.5-.2v-6.4c.5.1 1 .2 1.7.2m13.9-23.7c.7-1.8 1.7-3.4 3-4.7 1.3-1.3 2.8-2.3 4.6-3 1.8-.7 3.8-1.1 6-1.1s4.2.4 6 1.1c1.8.7 3.3 1.7 4.6 3 1.3 1.3 2.3 2.9 2.9 4.7.7 1.8 1 3.9 1 6.1 0 2.3-.3 4.3-1 6.1-.7 1.8-1.7 3.4-2.9 4.7-1.3 1.3-2.8 2.3-4.6 3-1.8.7-3.8 1-6 1s-4.2-.3-6-1c-1.8-.7-3.3-1.7-4.6-3-1.3-1.3-2.3-2.9-3-4.7-.7-1.8-1-3.9-1-6.1-.1-2.2.3-4.3 1-6.1m7 9.4c.2 1.1.6 2 1.1 2.9.5.9 1.2 1.5 2.1 2.1.9.5 2 .8 3.3.8 1.3 0 2.4-.3 3.3-.8.9-.5 1.6-1.2 2.1-2.1.5-.9.9-1.8 1.1-2.9.2-1.1.3-2.2.3-3.3 0-1.1-.1-2.2-.3-3.3-.2-1.1-.6-2.1-1.1-2.9-.5-.8-1.2-1.5-2.1-2.1-.9-.5-2-.8-3.3-.8-1.3 0-2.4.3-3.3.8-.9.5-1.6 1.2-2.1 2.1-.5.8-.9 1.8-1.1 2.9-.2 1.1-.3 2.2-.3 3.3 0 1.1.1 2.3.3 3.3M108.9 39h-8.6v-8.4h8.6V39zm-2.4-11.7h-3.9l-2.1-16.8V0h8.1v10.5l-2.1 16.8z"/><path class="st1" d="M118.6 38.2h-3.1V.9h3.1v14.8c1-1.7 2.4-2.9 4.1-3.8 1.7-.8 3.6-1.3 5.5-1.3 2 0 3.8.4 5.3 1.2s2.8 1.8 3.7 3.1c1 1.3 1.7 2.8 2.2 4.5.5 1.7.7 3.5.7 5.4 0 2-.2 3.8-.7 5.6-.5 1.7-1.2 3.2-2.2 4.5-1 1.3-2.2 2.3-3.8 3-1.5.7-3.4 1.1-5.6 1.1-.9 0-1.7-.1-2.6-.4-.9-.2-1.8-.6-2.6-1s-1.6-1-2.3-1.7c-.7-.7-1.3-1.5-1.7-2.4h-.1v4.7zm0-13.5c0 1.6.2 3.1.6 4.5.4 1.4 1 2.6 1.7 3.6.8 1 1.7 1.8 2.9 2.4 1.1.6 2.4.9 3.9.9 1.3 0 2.5-.2 3.6-.7 1.1-.5 2.1-1.2 2.9-2.1.8-.9 1.5-2 1.9-3.3.5-1.3.7-2.8.7-4.5.1-1.7-.1-3.3-.4-4.8-.3-1.5-.9-2.8-1.7-3.9-.8-1.1-1.7-2-2.9-2.6-1.2-.6-2.6-1-4.2-1-1.4 0-2.7.3-3.8.9-1.1.6-2.1 1.4-2.9 2.4-.8 1-1.4 2.2-1.8 3.6-.3 1.6-.5 3.1-.5 4.6zM147 38.2h-3.1V11.3h3.1v5h.1c.9-2.1 2-3.6 3.3-4.5 1.4-.8 3.2-1.3 5.4-1.3V14c-1.8 0-3.2.2-4.4.8-1.1.6-2.1 1.4-2.7 2.4-.7 1-1.1 2.2-1.4 3.6-.3 1.4-.4 2.8-.4 4.3v13.1zm23.2-15.6c.6-.1 1.3-.2 2.1-.3.8-.1 1.5-.3 2-.6.5-.2.8-.6 1-1.2.1-.6.2-1.1.2-1.6 0-1.6-.5-2.9-1.5-3.9s-2.7-1.5-5.2-1.5c-1.1 0-2.1.1-3 .3-.9.2-1.7.5-2.4 1s-1.2 1.1-1.7 1.9c-.4.8-.7 1.8-.9 2.9h-3.2c.1-1.6.5-3 1.1-4.1.6-1.1 1.4-2 2.4-2.8 1-.7 2.1-1.2 3.4-1.6 1.3-.3 2.7-.5 4.1-.5 1.4 0 2.6.1 3.8.4 1.2.3 2.2.8 3.1 1.4.9.6 1.6 1.5 2.1 2.6s.8 2.4.8 3.9v14.6c0 1.2.2 2 .6 2.3.4.3 1.3.3 2.6-.2V38c-.2.1-.6.2-1.1.3-.5.1-.9.2-1.4.2-.5 0-1-.1-1.4-.2-.5-.1-.9-.2-1.2-.5-.3-.3-.6-.6-.8-.9-.2-.4-.3-.8-.4-1.2-.1-.4-.1-.9-.1-1.4-1.3 1.5-2.8 2.6-4.5 3.3-1.7.8-3.5 1.1-5.5 1.1-1.2 0-2.3-.2-3.4-.5s-2.1-.8-2.9-1.5c-.8-.7-1.5-1.5-2-2.4-.5-1-.7-2.1-.7-3.4 0-4.6 3.1-7.3 9.4-8.1l4.6-.2zm5.3 1.5c-1.3.6-2.6.9-4 1.1-1.4.2-2.7.3-4 .4-2.4.2-4.2.7-5.6 1.6-1.3.9-2 2.3-2 4.1 0 .8.2 1.5.5 2.2.3.6.8 1.1 1.3 1.5.5.4 1.2.7 1.9.9.7.2 1.4.3 2.2.3 1.2 0 2.5-.2 3.6-.5 1.2-.3 2.2-.8 3.1-1.4.9-.6 1.7-1.5 2.2-2.4.6-1 .8-2.2.8-3.5v-4.3zm11.3 14.1h-3.1V11.3h3.1V15c1.2-1.3 2.5-2.4 3.9-3.2 1.3-.8 2.9-1.2 4.8-1.2 1.7 0 3.2.3 4.6.9 1.4.6 2.6 1.6 3.6 3 .7 1 1 2 1.2 3 .1 1 .2 2.1.2 3.2v17.6H202V20.7c0-2.4-.5-4.2-1.6-5.5-1.1-1.2-2.9-1.8-5.3-1.8-1 0-1.9.1-2.6.4-.8.3-1.5.7-2.2 1.2-.6.5-1.2 1-1.6 1.7-.5.6-.8 1.3-1 2-.3.9-.5 1.7-.6 2.5-.1.8-.1 1.7-.1 2.6v14.4zM230.2.9h3.1v37.4h-3.1v-4.7h-.1c-.5.9-1 1.7-1.7 2.4s-1.5 1.2-2.3 1.7c-.8.5-1.7.8-2.6 1-.9.2-1.8.4-2.6.4-2.2 0-4-.4-5.6-1.1-1.5-.7-2.8-1.7-3.8-3s-1.7-2.8-2.2-4.5c-.5-1.7-.7-3.6-.7-5.6 0-1.9.2-3.7.7-5.4.5-1.7 1.2-3.2 2.2-4.5 1-1.3 2.2-2.3 3.7-3.1s3.3-1.2 5.3-1.2c1.9 0 3.7.4 5.5 1.3 1.7.8 3.1 2.1 4.1 3.8V.9zm0 23.8c0-1.5-.2-3-.6-4.3-.4-1.4-1-2.6-1.8-3.6s-1.7-1.8-2.9-2.4c-1.1-.6-2.4-.9-3.8-.9-1.6 0-3 .3-4.2 1-1.2.6-2.1 1.5-2.9 2.6-.8 1.1-1.3 2.4-1.7 3.9-.3 1.5-.5 3.1-.4 4.8 0 1.7.2 3.2.7 4.5.5 1.3 1.1 2.4 1.9 3.3.8.9 1.8 1.6 2.9 2.1 1.1.5 2.3.7 3.6.7 1.5 0 2.8-.3 3.9-.9 1.1-.6 2.1-1.4 2.9-2.4.8-1 1.3-2.2 1.7-3.6.5-1.7.7-3.2.7-4.8zm9.6 5.1c.5 2.3 1.4 4 2.6 4.9 1.3 1 3.1 1.4 5.4 1.4 1.1 0 2.1-.1 3-.4.8-.3 1.5-.6 2.1-1.1.5-.5.9-1 1.2-1.6.3-.6.4-1.2.4-1.9 0-1.3-.4-2.3-1.3-2.9-.8-.6-1.9-1.1-3.2-1.5-1.3-.4-2.7-.7-4.2-.9-1.5-.3-2.9-.6-4.2-1.2-1.3-.5-2.3-1.3-3.2-2.2-.8-1-1.3-2.3-1.3-4.1 0-2.2.8-4.1 2.5-5.5 1.6-1.4 4-2.2 7-2.2 2.9 0 5.3.6 7.1 1.9 1.8 1.3 2.9 3.5 3.3 6.5h-3.2c-.3-2.1-1.1-3.5-2.4-4.4-1.3-.8-2.9-1.3-4.9-1.3-2 0-3.5.4-4.5 1.3-1 .8-1.6 2-1.6 3.3 0 1.2.4 2.1 1.3 2.8.8.6 1.9 1.2 3.2 1.6 1.3.4 2.7.8 4.2 1.1s2.9.8 4.2 1.3 2.3 1.3 3.2 2.3c.8 1 1.3 2.3 1.3 4 0 1.3-.3 2.4-.8 3.4s-1.3 1.8-2.3 2.5c-1 .7-2.1 1.2-3.5 1.5-1.3.3-2.8.5-4.4.5s-3-.2-4.2-.7-2.3-1.1-3.1-1.9c-.9-.8-1.5-1.8-2-2.9-.5-1.1-.8-2.3-.8-3.6h3.1z"/></svg>